<svg xmlns="http://www.w3.org/2000/svg" width="174" height="204" viewBox="0 0 174 204" fill="none">
  <path fill-rule="evenodd" clip-rule="evenodd"
    d="M121.345 0.202658C121.493 -0.00919751 121.785 -0.0606841 121.997 0.087659L136.482 10.2301C136.694 10.3784 136.745 10.6704 136.597 10.8823L116.436 39.6743C126.237 42.8055 132.915 46.1831 132.915 46.1831C132.915 46.1831 116.593 74.2578 88.9101 74.2578C61.2271 74.2578 41.5558 48.0916 41.5558 48.0916C41.5558 48.0916 48.5309 43.6402 58.8703 39.8224L36.757 13.4692C36.5909 13.271 36.6168 12.9757 36.8148 12.8094L50.3605 1.44314C50.5589 1.2769 50.8542 1.30274 51.0203 1.50086L79.0193 34.8688C81.4167 34.5976 83.8592 34.446 86.3239 34.446C89.8664 34.446 93.4045 34.7153 96.8586 35.1723L121.345 0.202658ZM126.821 75.5873C134.209 70.3112 145.387 56.5404 145.387 56.5404C145.387 56.5404 173.941 79.1677 173.941 127.146C173.941 175.124 124.576 204 124.576 204C124.576 204 100.991 180.181 95.2007 149.987C89.411 119.793 103.766 86.2659 103.766 86.2659C103.766 86.2659 119.434 80.8635 126.821 75.5873ZM47.2603 75.5873C39.8728 70.3112 28.6943 56.5404 28.6943 56.5404C28.6943 56.5404 0.140625 79.1677 0.140625 127.146C0.140625 175.124 49.5055 204 49.5055 204C49.5055 204 73.091 180.181 78.8811 149.987C84.6708 119.793 70.3163 86.2659 70.3163 86.2659C70.3163 86.2659 54.6481 80.8635 47.2603 75.5873Z"
    fill="url(#paint0_linear_1461_17496)" />
  <defs>
    <linearGradient id="paint0_linear_1461_17496" x1="0.325292" y1="0.000244163" x2="115.076"
      y2="232.877" gradientUnits="userSpaceOnUse">
      <stop stop-color="white" />
      <stop offset="1" stop-color="white" stop-opacity="0" />
    </linearGradient>
  </defs>
</svg>