<svg xmlns="http://www.w3.org/2000/svg" width="204" height="204" viewBox="0 0 204 204" fill="none">
  <path fill-rule="evenodd" clip-rule="evenodd"
    d="M91.3974 180.432C95.273 181.026 99.2422 181.333 103.284 181.333C146.316 181.333 181.2 146.449 181.2 103.417C181.2 60.3844 146.316 25.5 103.284 25.5C100.397 25.5 97.5461 25.657 94.7407 25.963C116.087 42.1352 130.2 70.1497 130.2 102C130.2 135.485 114.601 164.73 91.3974 180.432ZM101.867 204C158.2 204 203.867 158.333 203.867 102C203.867 45.6669 158.2 0 101.867 0C45.534 0 -0.132813 45.6669 -0.132813 102C-0.132813 158.333 45.534 204 101.867 204Z"
    fill="url(#paint0_linear_1461_14979)" />
  <defs>
    <linearGradient id="paint0_linear_1461_14979" x1="0.0839425" y1="-0.00268557" x2="103.383"
      y2="246.056" gradientUnits="userSpaceOnUse">
      <stop stop-color="white" />
      <stop offset="1" stop-color="white" stop-opacity="0" />
    </linearGradient>
  </defs>
</svg>