<svg xmlns="http://www.w3.org/2000/svg" width="180" height="204" viewBox="0 0 180 204" fill="none">
  <path fill-rule="evenodd" clip-rule="evenodd"
    d="M99.8423 101.554C101.225 100.711 102.398 98.9444 103.344 96.9809C115.793 102.069 124.541 114.092 124.541 128.114C124.541 146.741 109.102 161.841 90.0566 161.841C82.2385 161.841 75.028 159.296 69.2438 155.008C67.3465 154.109 65.7854 153.246 64.508 152.54C62.5266 151.445 61.2273 150.726 60.4137 150.839C58.0354 151.166 58.7259 153.355 59.3534 155.342C59.7793 156.693 60.1766 157.951 59.5618 158.469C58.9187 159.013 56.8357 157.027 54.4016 154.706C51.0882 151.547 47.1246 147.768 45.2555 148.903C43.7777 149.801 45.2125 152.235 46.9688 155.216L47.0991 155.437C47.841 156.697 48.7008 157.98 49.4853 159.15C51.0802 161.529 52.3648 163.447 51.7221 163.771C50.9452 164.163 45.532 160.509 40.9703 155.437C39.2096 153.479 37.5043 151.357 35.9193 149.385V149.385C32.4501 145.068 29.5598 141.472 27.9374 141.898C25.9857 142.411 27.4621 146.437 29.6316 150.311C30.646 152.122 31.8393 153.967 32.8724 155.564V155.565C34.4793 158.049 35.699 159.934 35.2567 160.166C34.6598 160.478 29.408 155.356 25.841 148.903C23.7223 145.07 21.9433 140.833 20.503 137.404C18.9411 133.685 17.7776 130.914 17.0115 130.635C14.3497 129.667 14.3497 135.094 15.4172 142.927C15.5565 143.949 15.7639 145.021 16.0192 146.112C26.3723 179.61 58.176 204 95.8041 204C141.83 204 179.142 167.508 179.142 122.492C179.142 79.6477 145.343 44.5242 102.399 41.2359C102.454 39.2176 103.507 35.2151 103.507 35.2151C103.507 35.2151 111.088 16.8727 111.489 12.9532C111.515 12.693 111.547 12.4103 111.581 12.1093C112.053 7.87428 112.931 0 106.157 0C102.539 0 100.857 2.6913 98.933 5.76934V5.76938C98.1943 6.95102 97.4198 8.18969 96.4866 9.35492C89.7658 17.7478 78.4645 28.2288 72.0564 33.8127C58.5119 45.6147 45.2232 55.3143 37.4728 60.9713L37.4724 60.9717C33.9474 63.5444 31.5684 65.2812 30.832 65.9988C25.2834 71.408 5.38854 107.294 5.38854 107.294C5.38854 107.294 -1.04524 118.807 1.2416 121.142C3.52843 123.477 9.04313 122.942 9.04313 122.942C9.04313 122.942 83.129 105.946 89.7618 104.605C91.5476 104.244 92.8082 104.036 93.776 103.876C96.4037 103.442 96.8755 103.364 99.8423 101.554ZM47.4608 79.713C43.484 83.493 36.8887 92.5156 36.8887 92.5156C36.8887 92.5156 49.1462 93.2707 55.897 86.8538C62.6481 80.4366 61.1014 69.5007 61.1014 69.5007C61.1014 69.5007 51.4373 75.9331 47.4608 79.713Z"
    fill="url(#paint0_linear_1461_2587)" />
  <defs>
    <linearGradient id="paint0_linear_1461_2587" x1="0.939546" y1="-0.00268557" x2="113.861"
      y2="235.211" gradientUnits="userSpaceOnUse">
      <stop stop-color="white" />
      <stop offset="1" stop-color="white" stop-opacity="0" />
    </linearGradient>
  </defs>
</svg>