<svg xmlns="http://www.w3.org/2000/svg" width="128" height="204" viewBox="0 0 128 204" fill="none">
  <path fill-rule="evenodd" clip-rule="evenodd"
    d="M22.7859 0.232552C22.7465 0.118718 22.8314 0 22.9517 0L94.6023 0C94.6792 0 94.7474 0.0500386 94.7701 0.123429L127.68 106.451C127.715 106.564 127.631 106.678 127.512 106.678H79.8119C79.7538 106.678 79.7119 106.733 79.7279 106.79L107.085 203.094C107.139 203.281 106.894 203.403 106.777 203.247L0.461281 61.8642C0.374421 61.7487 0.456856 61.5837 0.601329 61.5837H43.8936C43.9537 61.5837 43.996 61.5244 43.976 61.4674L22.7859 0.232552Z"
    fill="url(#paint0_linear_1461_15329)" />
  <defs>
    <linearGradient id="paint0_linear_1461_15329" x1="0.561001" y1="-0.00267659" x2="134.003"
      y2="198.954" gradientUnits="userSpaceOnUse">
      <stop stop-color="white" />
      <stop offset="1" stop-color="white" stop-opacity="0" />
    </linearGradient>
  </defs>
</svg>