<svg xmlns="http://www.w3.org/2000/svg" width="204" height="204" viewBox="0 0 204 204" fill="none">
  <path fill-rule="evenodd" clip-rule="evenodd"
    d="M40.9299 161.757L73.6504 152.269L101.912 203.943C101.949 204.01 102.045 204.01 102.081 203.943L130.343 152.269L163.063 161.757C163.137 161.778 163.205 161.71 163.183 161.637L153.694 129.564L203.943 102.081C204.01 102.045 204.01 101.949 203.943 101.912L153.28 74.203L163.183 40.7303C163.205 40.657 163.137 40.5889 163.063 40.61L129.575 50.3203L102.081 0.0502781C102.045 -0.0167582 101.949 -0.01676 101.912 0.0502765L74.4182 50.3203L40.9299 40.61C40.8566 40.5889 40.7885 40.657 40.8104 40.7303L50.7136 74.203L0.0502781 101.912C-0.0167582 101.949 -0.01676 102.045 0.0502765 102.081L50.2992 129.564L40.8104 161.637C40.7885 161.71 40.8566 161.778 40.9299 161.757ZM66.3208 102.349L89.5015 115.027L102.179 138.207C102.216 138.275 102.312 138.275 102.349 138.207L115.027 115.027L138.207 102.349C138.274 102.312 138.274 102.216 138.207 102.179L115.027 89.5015L102.349 66.3212C102.312 66.2538 102.216 66.2538 102.179 66.3212L89.5015 89.5015L66.3208 102.179C66.2538 102.216 66.2538 102.312 66.3208 102.349Z"
    fill="url(#paint0_linear_1461_14001)" />
  <defs>
    <linearGradient id="paint0_linear_1461_14001" x1="0.216748" y1="-0.00268548" x2="103.512"
      y2="246.048" gradientUnits="userSpaceOnUse">
      <stop stop-color="white" />
      <stop offset="1" stop-color="white" stop-opacity="0" />
    </linearGradient>
  </defs>
</svg>