<svg xmlns="http://www.w3.org/2000/svg" width="192" height="204" viewBox="0 0 192 204" fill="none">
  <path fill-rule="evenodd" clip-rule="evenodd"
    d="M29.1556 16.9597C31.6244 7.21228 40.455 0 50.9698 0C58.8569 0 65.7965 4.05797 69.8143 10.2H76.3937C80.4813 6.00509 86.1921 3.4 92.5117 3.4C101.777 3.4 109.735 8.99999 113.184 17H118.693C122.144 14.8452 126.223 13.6 130.592 13.6C139.857 13.6 147.814 19.2 151.264 27.2L166.243 27.2C166.371 27.2 166.491 27.2345 166.594 27.2946C167.279 27.232 167.971 27.2 168.672 27.2C181.099 27.2 191.173 37.2744 191.173 49.7019V117.175L191.174 117.3L191.173 117.425V118.397C191.173 118.809 191.162 119.219 191.14 119.627C189.786 166.434 147.697 204 95.9734 204C43.3959 204 0.773437 165.183 0.773437 117.3C0.773437 94.1871 10.7045 73.1862 26.8924 57.644C26.8521 80.1768 27.2327 103.472 28.9871 103.072C33.6848 102.001 30.0144 32.2095 29.1556 16.9597Z"
    fill="url(#paint0_linear_1461_8181)" />
  <defs>
    <linearGradient id="paint0_linear_1461_8181" x1="0.975742" y1="-0.00268557" x2="109.252"
      y2="240.719" gradientUnits="userSpaceOnUse">
      <stop stop-color="white" />
      <stop offset="1" stop-color="white" stop-opacity="0" />
    </linearGradient>
  </defs>
</svg>