<svg xmlns="http://www.w3.org/2000/svg" width="154" height="204" viewBox="0 0 154 204" fill="none">
  <path fill-rule="evenodd" clip-rule="evenodd"
    d="M115.353 157.543C117.873 148.327 112.981 129.38 112.981 129.38C112.981 129.38 109.433 144.815 103.888 150.52C99.1576 155.386 93.3623 158.761 85.0509 159.648C91.8463 156.347 96.5195 149.465 96.5195 141.51C96.5195 130.343 87.3109 121.291 75.9514 121.291C64.5919 121.291 55.3828 130.343 55.3828 141.51C55.3828 144.56 56.0702 147.452 57.3001 150.045C50.1952 144.385 49.078 135.31 49.078 135.31C49.078 135.31 41.1443 168.249 63.005 183.743C84.8652 199.238 127.689 185.92 127.689 185.92C127.689 185.92 66.4056 229.04 20.9941 182.109C-18.1242 141.681 10.7842 88.4573 10.7842 88.4573C10.7842 88.4573 9.5357 93.3947 9.5357 99.1263C9.5357 104.858 12.6432 109.219 12.6432 109.219C12.6432 109.219 21.9129 89.6797 29.127 81.7337C35.9546 74.2135 44.5135 68.1143 51.9061 62.8461C57.5966 58.7908 62.5962 55.228 65.5821 51.8887C82.0284 33.4991 71.9443 0.00292969 71.9443 0.00292969C71.9443 0.00292969 90.4836 16.3468 95.6593 37.4552C97.6324 45.5013 96.363 54.6562 95.2282 62.8429C93.3858 76.1332 91.8969 86.8723 105.207 86.1754C126.715 85.0491 108.025 51.8887 108.025 51.8887C108.025 51.8887 156.814 77.5321 153.169 122.381C149.524 167.23 99.8401 177.426 99.8401 177.426C99.8401 177.426 112.832 166.759 115.353 157.543Z"
    fill="url(#paint0_linear_1461_13723)" />
  <defs>
    <linearGradient id="paint0_linear_1461_13723" x1="0.662422" y1="0.000244122" x2="124.076"
      y2="220.283" gradientUnits="userSpaceOnUse">
      <stop stop-color="white" />
      <stop offset="1" stop-color="white" stop-opacity="0" />
    </linearGradient>
  </defs>
</svg>