<svg xmlns="http://www.w3.org/2000/svg" width="204" height="178" viewBox="0 0 204 178" fill="none">
  <path fill-rule="evenodd" clip-rule="evenodd"
    d="M71.2056 177.347C101.09 177.347 126.674 160.738 137.236 137.193C137.365 136.906 94.8309 148.247 96.1872 144.238C96.7929 142.448 122.867 132.923 141.863 121.813C152.781 115.427 157.809 101.909 157.809 101.909C157.809 101.909 139.415 110.84 130.115 113.106C111.376 117.672 94.8804 117.18 94.8804 116.705C94.8804 115.676 122.271 110.471 160.341 87.2724C178.248 76.3604 183.112 57.5645 183.112 57.5645C183.112 57.5645 163.424 69.2913 151.523 73.1629C123.299 82.3441 97.5435 85.1109 97.5435 83.8686C97.5435 81.2086 120.209 74.9758 144.241 63.3315C156.736 57.2772 167.557 49.3674 180.097 40.5711C200.616 26.1792 204 0.546875 204 0.546875C204 0.546875 183.762 13.5997 173.886 17.9345C133.134 35.821 97.1507 45.2034 71.2056 47.2346C32.0408 50.301 0 77.627 0 113.106C0 148.585 31.8798 177.347 71.2056 177.347Z"
    fill="url(#paint0_linear_1461_17843)" />
  <defs>
    <linearGradient id="paint0_linear_1461_17843" x1="0.216755" y1="0.544548" x2="80.8111"
      y2="222.056" gradientUnits="userSpaceOnUse">
      <stop stop-color="white" />
      <stop offset="1" stop-color="white" stop-opacity="0" />
    </linearGradient>
  </defs>
</svg>