<svg xmlns="http://www.w3.org/2000/svg" width="204" height="204" viewBox="0 0 204 204" fill="none">
  <path fill-rule="evenodd" clip-rule="evenodd"
    d="M147.004 203.294C128.603 204.236 107.537 204.236 100.378 203.294C44.5334 195.947 0 155.117 0 99.9282C0 44.7394 45.6669 0 102 0C158.333 0 204 44.7394 204 99.9282C204 125.596 194.122 149.003 177.886 166.701C173.478 171.507 179.527 174.877 185.673 178.302C191.7 181.662 197.821 185.073 194.264 189.94C190.344 195.303 169.094 202.163 147.004 203.294ZM87.6563 87.4371C87.6563 96.0601 80.5207 103.051 71.7188 103.051C62.9169 103.051 55.7813 96.0601 55.7813 87.4371C55.7813 81.6538 58.9907 76.6052 63.7596 73.9066C64.0341 81.4255 70.2163 87.4367 77.8025 87.4367H87.6563V87.4371ZM137.053 73.9066C136.778 81.4255 130.596 87.4367 123.01 87.4367H113.156V87.4371C113.156 96.0601 120.292 103.051 129.094 103.051C137.896 103.051 145.031 96.0601 145.031 87.4371C145.031 81.6538 141.822 76.6052 137.053 73.9066Z"
    fill="url(#paint0_linear_1461_15035)" />
  <defs>
    <linearGradient id="paint0_linear_1461_15035" x1="0.216755" y1="-0.00268557" x2="103.515"
      y2="246.056" gradientUnits="userSpaceOnUse">
      <stop stop-color="white" />
      <stop offset="1" stop-color="white" stop-opacity="0" />
    </linearGradient>
  </defs>
</svg>