<svg xmlns="http://www.w3.org/2000/svg" width="204" height="149" viewBox="0 0 204 149" fill="none">
  <path fill-rule="evenodd" clip-rule="evenodd"
    d="M44.9294 148.212C44.8741 148.212 44.8354 148.157 44.8537 148.105L96.9355 0.941087C96.9471 0.909092 96.9774 0.887695 97.0112 0.887695L152.61 0.887695C152.644 0.887695 152.675 0.909252 152.686 0.941446L203.995 148.105C204.013 148.157 203.974 148.212 203.919 148.212H46.4945H44.9294ZM0.0802079 148.787C0.0242697 148.787 -0.0144574 148.732 0.00516404 148.679L38.7889 45.1366C38.8007 45.1051 38.8306 45.0844 38.864 45.0844L72.5627 45.0844C72.6185 45.0844 72.6571 45.1398 72.638 45.192L35.1352 148.735C35.1237 148.766 35.0936 148.787 35.0598 148.787H0.0802079Z"
    fill="url(#paint0_linear_1461_14187)" />
  <defs>
    <linearGradient id="paint0_linear_1461_14187" x1="0.216754" y1="0.885748" x2="58.6676"
      y2="192.928" gradientUnits="userSpaceOnUse">
      <stop stop-color="white" />
      <stop offset="1" stop-color="white" stop-opacity="0" />
    </linearGradient>
  </defs>
</svg>