<svg xmlns="http://www.w3.org/2000/svg" width="199" height="175" viewBox="0 0 199 175" fill="none">
  <path fill-rule="evenodd" clip-rule="evenodd"
    d="M150.704 0.553158L151.331 55.6771L103.252 78.7574L102.659 26.7099L150.704 0.553158Z"
    fill="url(#paint0_radial_1461_5385)" />
  <path fill-rule="evenodd" clip-rule="evenodd"
    d="M198.902 87.418L151.306 114.642L103.683 87.375L151.282 62.3722L198.902 87.418Z"
    fill="url(#paint1_radial_1461_5385)" />
  <path fill-rule="evenodd" clip-rule="evenodd"
    d="M95.2192 87.418L47.6238 114.642L0 87.375L47.5991 62.3722L95.2192 87.418Z"
    fill="url(#paint2_radial_1461_5385)" />
  <path fill-rule="evenodd" clip-rule="evenodd"
    d="M47.0835 0.330566L96.4842 24.7969L95.2212 78.1143L48.5777 55.0136L47.0835 0.330566Z"
    fill="url(#paint3_radial_1461_5385)" />
  <path fill-rule="evenodd" clip-rule="evenodd"
    d="M152.054 173.667L102.653 149.201L103.916 95.8833L150.56 118.984L152.054 173.667Z"
    fill="url(#paint4_radial_1461_5385)" />
  <path fill-rule="evenodd" clip-rule="evenodd"
    d="M48.7966 174.165L48.1687 119.041L96.2485 95.9612L96.8414 148.008L48.7966 174.165Z"
    fill="url(#paint5_radial_1461_5385)" />
  <defs>
    <radialGradient id="paint0_radial_1461_5385" cx="0" cy="0" r="1" gradientUnits="userSpaceOnUse"
      gradientTransform="translate(9.00001 6.85685e-05) rotate(42.4831) scale(257.635 294.787)">
      <stop stop-color="white" />
      <stop offset="1" stop-color="white" stop-opacity="0" />
    </radialGradient>
    <radialGradient id="paint1_radial_1461_5385" cx="0" cy="0" r="1" gradientUnits="userSpaceOnUse"
      gradientTransform="translate(9.00001 6.85685e-05) rotate(42.4831) scale(257.635 294.787)">
      <stop stop-color="white" />
      <stop offset="1" stop-color="white" stop-opacity="0" />
    </radialGradient>
    <radialGradient id="paint2_radial_1461_5385" cx="0" cy="0" r="1" gradientUnits="userSpaceOnUse"
      gradientTransform="translate(9.00001 6.85685e-05) rotate(42.4831) scale(257.635 294.787)">
      <stop stop-color="white" />
      <stop offset="1" stop-color="white" stop-opacity="0" />
    </radialGradient>
    <radialGradient id="paint3_radial_1461_5385" cx="0" cy="0" r="1" gradientUnits="userSpaceOnUse"
      gradientTransform="translate(9.00001 6.85685e-05) rotate(42.4831) scale(257.635 294.787)">
      <stop stop-color="white" />
      <stop offset="1" stop-color="white" stop-opacity="0" />
    </radialGradient>
    <radialGradient id="paint4_radial_1461_5385" cx="0" cy="0" r="1" gradientUnits="userSpaceOnUse"
      gradientTransform="translate(9.00001 6.85685e-05) rotate(42.4831) scale(257.635 294.787)">
      <stop stop-color="white" />
      <stop offset="1" stop-color="white" stop-opacity="0" />
    </radialGradient>
    <radialGradient id="paint5_radial_1461_5385" cx="0" cy="0" r="1" gradientUnits="userSpaceOnUse"
      gradientTransform="translate(9.00001 6.85685e-05) rotate(42.4831) scale(257.635 294.787)">
      <stop stop-color="white" />
      <stop offset="1" stop-color="white" stop-opacity="0" />
    </radialGradient>
  </defs>
</svg>