<svg xmlns="http://www.w3.org/2000/svg" width="204" height="204" viewBox="0 0 204 204" fill="none">
  <path fill-rule="evenodd" clip-rule="evenodd"
    d="M170.46 156.765C191.06 140.293 204 116.494 204 90.027C204 40.3064 158.333 0 102 0C45.6669 0 0 40.3064 0 90.027C0 115.538 12.0223 138.571 31.3392 154.953C30.1685 158.995 29.5263 163.392 29.5263 167.989C29.5263 187.877 41.5439 204 56.3686 204C66.0012 204 74.4489 197.193 79.1843 186.968C83.9197 197.193 92.3674 204 102 204C110.781 204 118.577 198.344 123.474 189.599C128.371 198.344 136.167 204 144.947 204C159.772 204 171.79 187.877 171.79 167.989C171.79 164.07 171.323 160.297 170.46 156.765ZM161.053 91.8124C161.053 117.055 134.013 137.518 100.658 137.518C67.3029 137.518 40.2633 117.055 40.2633 91.8124C40.2633 66.5698 67.3029 46.1064 100.658 46.1064C134.013 46.1064 161.053 66.5698 161.053 91.8124Z"
    fill="url(#paint0_linear_1461_14381)" />
  <defs>
    <linearGradient id="paint0_linear_1461_14381" x1="0.216755" y1="-0.00268557" x2="103.515"
      y2="246.056" gradientUnits="userSpaceOnUse">
      <stop stop-color="white" />
      <stop offset="1" stop-color="white" stop-opacity="0" />
    </linearGradient>
  </defs>
</svg>