<svg xmlns="http://www.w3.org/2000/svg" width="190" height="204" viewBox="0 0 190 204" fill="none">
  <path fill-rule="evenodd" clip-rule="evenodd"
    d="M174.658 169.406C174.658 169.406 148.935 190.037 97.7465 181.5C58.9107 175.022 38.1976 132.212 38.1976 109.2C38.1976 54.6424 78.5776 42.2267 105.877 42.2267C133.177 42.2267 150.986 68.8423 150.986 89.4495C150.986 110.057 136.411 128.081 113.729 128.081C91.0475 128.081 84.3299 112.158 84.3299 97.5179C84.3299 82.8785 96.1742 77.7207 106.976 77.7207C117.778 77.7207 121.477 86.943 121.477 94.8691C121.477 102.796 115.327 105.634 110.198 105.634C105.068 105.634 104.561 103.046 102.598 100.326C100.634 97.6071 105.102 87.3131 97.7465 87.3131C90.3913 87.3131 89.0203 99.1471 89.0203 99.1471C89.0203 99.1471 91.7018 121.991 113.729 121.597C135.757 121.202 146.206 104.173 143.17 87.3131C140.133 70.4528 123.77 52.5371 95.053 56.1573C66.336 59.7775 54.6112 88.7933 59.7793 119.801C64.9475 150.81 102.095 168.776 131.302 162.312C160.51 155.848 189.601 134.703 189.601 81.0923C189.601 27.4809 143.17 -4.74441 87.8046 0.566494C32.4397 5.87738 -1.9283 54.281 0.271557 112.439C2.47141 170.597 57.6565 202.272 104.321 203.904C150.986 205.537 179.593 178.524 179.593 178.524C179.593 178.524 186.027 172.787 183.504 168.307C180.982 163.827 174.658 169.406 174.658 169.406Z"
    fill="url(#paint0_linear_1461_14564)" />
  <defs>
    <linearGradient id="paint0_linear_1461_14564" x1="0.373148" y1="-0.00561496" x2="108.998"
      y2="240.283" gradientUnits="userSpaceOnUse">
      <stop stop-color="white" />
      <stop offset="1" stop-color="white" stop-opacity="0" />
    </linearGradient>
  </defs>
</svg>