<svg xmlns="http://www.w3.org/2000/svg" width="204" height="162" viewBox="0 0 204 162" fill="none">
  <path fill-rule="evenodd" clip-rule="evenodd"
    d="M157.438 76.5258C157.426 76.5098 157.422 76.4899 157.425 76.4704L170.439 0.581478C170.445 0.546535 170.476 0.520996 170.511 0.520996L174.63 0.520996C174.662 0.520996 174.69 0.541596 174.699 0.571877L204.02 93.4092C204.03 93.4379 204.02 93.4697 203.996 93.4884L182.377 110.367C182.345 110.393 182.298 110.386 182.274 110.353L157.438 76.5258ZM-0.398438 126.834C-0.398438 126.866 -0.378198 126.894 -0.348278 126.904L44.2166 141.475C44.2381 141.482 44.262 141.479 44.2808 141.466L143.894 72.6956C143.911 72.684 143.922 72.6661 143.924 72.6462L154.607 0.970593C154.613 0.926605 154.579 0.887081 154.535 0.887081L66.3024 0.887081C66.2805 0.887081 66.2602 0.896723 66.2462 0.913418L-0.381693 81.2899C-0.392517 81.303 -0.398438 81.3194 -0.398438 81.3365L-0.398438 126.834ZM62.787 145.188L111.473 161.136C111.495 161.143 111.52 161.14 111.538 161.126L169.503 119.548C169.535 119.525 169.543 119.481 169.521 119.448L147.792 87.1131C147.769 87.0792 147.724 87.0704 147.69 87.0935L62.787 145.188Z"
    fill="url(#paint0_linear_1461_959)" />
  <defs>
    <linearGradient id="paint0_linear_1461_959" x1="-0.181234" y1="0.518882" x2="67.6095"
      y2="206.035" gradientUnits="userSpaceOnUse">
      <stop stop-color="white" />
      <stop offset="1" stop-color="white" stop-opacity="0" />
    </linearGradient>
  </defs>
</svg>