<svg xmlns="http://www.w3.org/2000/svg" width="204" height="177" viewBox="0 0 204 177" fill="none">
  <path fill-rule="evenodd" clip-rule="evenodd"
    d="M0.0203644 88.4185C-0.00677527 88.3723 -0.0067889 88.3149 0.0203281 88.2683L51.3168 0.625678C51.3435 0.580216 51.3925 0.552246 51.4451 0.552246L153.117 0.552246C153.17 0.552246 153.219 0.580456 153.246 0.626316L203.98 88.2691C204.006 88.3149 204.006 88.3719 203.98 88.4177L153.246 175.962C153.219 176.008 153.17 176.036 153.117 176.036H51.4451C51.3925 176.036 51.3435 176.008 51.3168 175.963L0.0203644 88.4185ZM149.262 88.2942C149.262 114.387 128.109 135.54 102.016 135.54C75.9231 135.54 54.7704 114.387 54.7704 88.2942C54.7704 62.2009 75.9231 41.0487 102.016 41.0487C128.109 41.0487 149.262 62.2009 149.262 88.2942Z"
    fill="url(#paint0_linear_1461_14647)" />
  <defs>
    <linearGradient id="paint0_linear_1461_14647" x1="0.216755" y1="0.549936" x2="79.7536"
      y2="220.794" gradientUnits="userSpaceOnUse">
      <stop stop-color="white" />
      <stop offset="1" stop-color="white" stop-opacity="0" />
    </linearGradient>
  </defs>
</svg>