<svg xmlns="http://www.w3.org/2000/svg" width="134" height="204" viewBox="0 0 134 204" fill="none">
  <path fill-rule="evenodd" clip-rule="evenodd"
    d="M133.209 138.066C133.209 174.476 103.582 203.992 67.0343 203.992C30.4868 203.992 0.859375 174.476 0.859375 138.066C0.859375 102.655 63.4547 5.39946 66.8877 0.0922329C66.9662 -0.0287919 67.1028 -0.0287909 67.1809 0.0922341C70.6139 5.39946 133.209 102.655 133.209 138.066ZM56.0031 182.857C22.4228 175.509 28.1691 138.311 28.1691 138.311C28.1691 138.311 37.3387 160.766 59.5911 168.04C81.843 175.314 108.734 164.646 108.734 164.646C108.734 164.646 89.5835 190.204 56.0031 182.857Z"
    fill="url(#paint0_linear_1461_9107)" />
  <defs>
    <linearGradient id="paint0_linear_1461_9107" x1="1" y1="-0.0012206" x2="133" y2="203.999"
      gradientUnits="userSpaceOnUse">
      <stop stop-color="white" />
      <stop offset="1" stop-color="white" stop-opacity="0" />
    </linearGradient>
  </defs>
</svg>