<svg xmlns="http://www.w3.org/2000/svg" width="183" height="197" viewBox="0 0 183 197" fill="none">
  <path fill-rule="evenodd" clip-rule="evenodd"
    d="M29.8169 171.574C29.1166 170.915 28.4242 170.244 27.7397 169.559C-8.39241 133.427 -8.39241 74.8455 27.7397 38.7135C63.8717 2.58127 179.003 0.164063 179.003 0.164063C179.003 0.164063 194.718 133.427 158.586 169.559C126.496 201.649 76.6982 205.239 40.6464 180.329L69.6957 144.681L116.134 134.655L78.2266 130.865L102.317 106.337L129.739 100.33L108.055 93.9079L129.739 54.7909L98.896 89.3864L86.9855 72.5791L91.1782 100.33L69.6957 124.547L59.7375 93.9075V134.655L29.8169 171.574Z"
    fill="url(#paint0_linear_1461_13521)" />
  <defs>
    <linearGradient id="paint0_linear_1461_13521" x1="0.833753" y1="0.161476" x2="105.745"
      y2="231.325" gradientUnits="userSpaceOnUse">
      <stop stop-color="white" />
      <stop offset="1" stop-color="white" stop-opacity="0" />
    </linearGradient>
  </defs>
</svg>